<svg width="24" height="18" viewBox="0 0 24 18" fill="none" xmlns="http://www.w3.org/2000/svg">
<path d="M20.3303 1.92375C18.7767 1.25862 17.1156 0.775242 15.3789 0.5C15.1656 0.852851 14.9164 1.32744 14.7446 1.70498C12.8985 1.45093 11.0693 1.45093 9.25716 1.70498C9.08539 1.32744 8.83056 0.852851 8.61536 0.5C6.87681 0.775242 5.21376 1.2604 3.66019 1.92727C0.526643 6.26019 -0.322811 10.4855 0.101917 14.6508C2.18025 16.071 4.19441 16.9337 6.17458 17.4983C6.66349 16.8825 7.09953 16.228 7.47518 15.5382C6.75975 15.2895 6.07453 14.9825 5.42707 14.6261C5.59884 14.5097 5.76686 14.3879 5.92918 14.2627C9.8782 15.9528 14.1689 15.9528 18.0707 14.2627C18.235 14.3879 18.403 14.5097 18.5728 14.6261C17.9235 14.9842 17.2364 15.2912 16.521 15.54C16.8966 16.228 17.3308 16.8843 17.8216 17.5C19.8036 16.9355 21.8197 16.0728 23.898 14.6508C24.3964 9.82214 23.0467 5.63565 20.3303 1.92375ZM8.01318 12.0892C6.82772 12.0892 5.85555 11.0765 5.85555 9.84331C5.85555 8.61012 6.80696 7.5957 8.01318 7.5957C9.21942 7.5957 10.1916 8.60835 10.1708 9.84331C10.1727 11.0765 9.21942 12.0892 8.01318 12.0892ZM15.9867 12.0892C14.8013 12.0892 13.8291 11.0765 13.8291 9.84331C13.8291 8.61012 14.7805 7.5957 15.9867 7.5957C17.193 7.5957 18.1651 8.60835 18.1444 9.84331C18.1444 11.0765 17.193 12.0892 15.9867 12.0892Z" fill="#5865F2"/>
</svg>
