<svg width="48" height="48" viewBox="0 0 48 48" fill="none" xmlns="http://www.w3.org/2000/svg">
<path d="M21.3 24.0601C20.9686 24.0601 20.6999 24.3287 20.6999 24.6601V33.5839C20.6999 33.9153 20.9686 34.1839 21.3 34.1839H21.5999C21.9313 34.1839 22.1999 33.9153 22.1999 33.5839V24.6601C22.1999 24.3287 21.9313 24.0601 21.5999 24.0601H21.3Z" fill="#F8A917"/>
<path d="M25.8 21.5C25.8 21.1686 26.0687 20.9 26.4001 20.9H26.7C27.0314 20.9 27.3 21.1686 27.3 21.5V35.961C27.3 36.2924 27.0314 36.561 26.7 36.561H26.4001C26.0687 36.561 25.8 36.2924 25.8 35.961V21.5Z" fill="#F8A917"/>
<path d="M23.85 25.9223C23.5186 25.9223 23.25 26.1909 23.25 26.5223V31.4C23.25 31.7314 23.5186 32 23.85 32H24.15C24.4814 32 24.75 31.7314 24.75 31.4V26.5223C24.75 26.1909 24.4814 25.9223 24.15 25.9223H23.85Z" fill="#F8A917"/>
<path d="M9.89245 32.4448C12.0171 32.4448 13.7395 30.6661 13.7395 28.472C13.7395 26.2778 12.0171 24.4991 9.89245 24.4991C7.76776 24.4991 6.04538 26.2778 6.04538 28.472C6.04538 30.6661 7.76776 32.4448 9.89245 32.4448Z" fill="#F8A917"/>
<path d="M42 28.472C42 30.6661 40.2847 32.4448 38.16 32.4448C36.0353 32.4448 34.31 30.6661 34.31 28.472C34.31 26.2778 36.0353 24.4991 38.16 24.4991C40.2847 24.4991 42 26.2778 42 28.472Z" fill="#F8A917"/>
<path fill-rule="evenodd" clip-rule="evenodd" d="M23.9983 44.8362H24.0016C29.7878 44.8362 34.6185 42.4985 38.0684 38.6877C40.8521 38.5459 43.5084 37.3419 45.1026 35.6956C48.9658 31.7061 48.9658 25.2378 45.1026 21.2483C44.6889 20.821 44.2477 20.4396 43.7848 20.1039C42.8663 8.81002 35.2342 0 24.0016 0H23.9983C12.7658 0 5.13375 8.81002 4.21515 20.1039C3.75232 20.4396 3.31112 20.821 2.89743 21.2483C-0.965809 25.2378 -0.965809 31.7061 2.89743 35.6956C4.56662 37.4194 6.68386 38.3984 8.86203 38.6326L2.91845 44.7705C2.20303 45.5093 2.20303 46.7071 2.91845 47.4459C3.63388 48.1847 4.79379 48.1847 5.50921 47.4459L12.046 40.6954C15.2527 43.3028 19.3122 44.8362 23.9983 44.8362ZM23.9983 41.0526H24.0016C27.8681 41.0526 31.1748 39.7968 33.7741 37.6585C32.8126 37.1748 31.9113 36.5205 31.1125 35.6956C27.2493 31.7061 27.2493 25.2378 31.1125 21.2483C33.323 18.9655 36.0891 18.1142 39.872 18.4181C38.4409 10.4386 32.608 5.48629 24.0016 5.48629H23.9983C15.392 5.48629 9.55911 10.4386 8.12799 18.4181C11.7244 17.9723 14.8845 19.1798 16.8874 21.2483C20.7507 25.2378 20.7507 31.7061 16.8874 35.6956L14.6564 37.9996C17.1866 39.9297 20.3422 41.0526 23.9983 41.0526ZM14.2967 23.9237C11.8643 21.4118 7.92059 21.4118 5.48819 23.9237C3.05575 26.4356 3.05575 30.5083 5.48819 33.0202C7.92059 35.5321 11.8643 35.5321 14.2967 33.0202C16.7291 30.5083 16.7291 26.4356 14.2967 23.9237ZM42.5118 23.9237C40.0794 21.4118 36.1357 21.4118 33.7033 23.9237C31.2709 26.4356 31.2709 30.5083 33.7033 33.0202C36.1357 35.5321 40.0794 35.5321 42.5118 33.0202C44.9442 30.5083 44.9442 26.4356 42.5118 23.9237Z" fill="#F8A917"/>
</svg>
