<svg width="128" height="128" viewBox="0 0 128 128" fill="none" xmlns="http://www.w3.org/2000/svg">
<path fill-rule="evenodd" clip-rule="evenodd" d="M63.9956 119.563H64H64.0044C79.4341 119.563 92.3161 113.329 101.516 103.167C108.939 102.789 116.023 99.5783 120.274 95.1884C130.575 84.5496 130.575 67.3008 120.274 56.662C119.17 55.5228 117.994 54.5056 116.76 53.6103C114.31 23.4934 93.9579 0 64.0044 0H64H63.9956C34.0421 0 13.69 23.4934 11.2404 53.6103C10.0062 54.5056 8.82963 55.5228 7.72648 56.662C-2.57549 67.3008 -2.57549 84.5496 7.72648 95.1884C12.1776 99.785 17.8237 102.396 23.6321 103.02L7.78255 119.388C5.87477 121.358 5.87477 124.552 7.78254 126.522C9.69032 128.493 12.7834 128.493 14.6912 126.522L32.1225 108.521C40.6739 115.474 51.4992 119.563 63.9956 119.563ZM63.9956 109.474H64H64.0044C74.315 109.474 83.1328 106.125 90.0642 100.423C87.5002 99.1327 85.0967 97.3879 82.9668 95.1884C72.6648 84.5496 72.6648 67.3008 82.9668 56.662C88.8613 50.5748 96.2377 48.3046 106.325 49.115C102.509 27.8363 86.9548 14.6301 64.0044 14.6301H64H63.9956C41.0452 14.6301 25.4909 27.8363 21.6746 49.115C31.265 47.9262 39.6919 51.1461 45.0332 56.662C55.3352 67.3008 55.3352 84.5496 45.0332 95.1884L39.0838 101.332C45.8311 106.479 54.246 109.474 63.9956 109.474ZM38.1246 63.7965C31.6382 57.098 21.1216 57.098 14.6351 63.7965C8.14871 70.495 8.14871 81.3554 14.6351 88.0539C21.1216 94.7524 31.6382 94.7524 38.1246 88.0539C44.611 81.3554 44.611 70.495 38.1246 63.7965ZM113.365 63.7965C106.878 57.098 96.3619 57.098 89.8754 63.7965C83.389 70.495 83.389 81.3554 89.8754 88.0539C96.3619 94.7524 106.878 94.7524 113.365 88.0539C119.851 81.3554 119.851 70.495 113.365 63.7965Z" fill="white"/>
<path d="M109.108 82.8735C109.505 83.7128 110.339 84.291 111.304 84.291C112.653 84.291 113.747 83.1617 113.747 81.7686V70.8245C113.747 69.4314 112.653 68.3021 111.304 68.3021C109.955 68.3021 108.862 69.4314 108.862 70.8245V72.0832C109.081 72.5177 109.207 72.9374 109.261 73.3562C109.341 73.9737 109.252 74.5269 109.171 74.9835C109.163 75.0296 109.154 75.0753 109.146 75.1207C108.997 75.9543 108.865 76.6863 109.323 77.8365C109.673 78.7185 109.832 79.9197 109.72 80.9906C109.656 81.5956 109.486 82.3045 109.108 82.8735Z" fill="white"/>
<path d="M104.88 80.9759C104.989 81.2927 105.103 81.5523 105.202 81.7463C105.596 82.0287 106.075 82.1941 106.592 82.1941C106.964 82.1941 107.318 82.1079 107.634 81.9536C107.794 81.7697 107.955 81.4144 108.02 80.7998C108.104 79.9984 107.975 79.0958 107.741 78.5072C107.091 76.8718 107.301 75.7073 107.462 74.8134L107.462 74.8131L107.463 74.8079C107.472 74.7597 107.481 74.7124 107.489 74.6658C107.526 74.4535 107.555 74.2714 107.57 74.1045C107.271 73.969 106.94 73.8938 106.592 73.8938C106.112 73.8938 105.665 74.0363 105.288 74.2825C104.896 75.2297 104.531 76.4126 104.463 78.0185C104.412 79.2073 104.626 80.2321 104.88 80.9759Z" fill="white"/>
<path d="M101.706 63.5841C100.357 63.5841 99.2638 64.7134 99.2638 66.1065V70.6633C99.7556 71.112 100.056 71.8 100.248 72.4691C100.474 73.2558 100.6 74.1994 100.639 75.1871C100.716 77.1548 100.449 79.4468 99.778 81.2547C99.4676 82.0911 99.5145 83.2479 99.7423 84.3319C99.8528 84.8577 99.9981 85.3287 100.136 85.6832C100.183 85.8048 100.228 85.9079 100.268 85.9918C100.672 86.2958 101.169 86.4753 101.706 86.4753C103.055 86.4753 104.149 85.3459 104.149 83.9528V83.2803C104.091 83.2164 104.045 83.1546 104.01 83.1073C103.929 82.9943 103.846 82.8603 103.765 82.7121C103.601 82.4144 103.426 82.026 103.268 81.5643C102.952 80.6406 102.693 79.3891 102.755 77.9407C102.862 75.4265 103.607 73.7722 104.149 72.6212V66.1065C104.149 64.7134 103.055 63.5841 101.706 63.5841Z" fill="white"/>
<path d="M96.8212 71.7095C97.3857 71.7095 97.9054 71.9073 98.319 72.2393C98.4107 72.4011 98.5128 72.6375 98.6084 72.9707C98.7825 73.5773 98.8958 74.3678 98.9308 75.2587C99.001 77.0479 98.7502 79.0902 98.1814 80.6228C97.6938 81.9368 97.818 83.5005 98.0714 84.7064C98.2016 85.3256 98.3745 85.892 98.5498 86.3421C98.6373 86.5667 98.7293 86.7724 98.8219 86.9465L98.8279 86.9576L98.8341 86.9692C98.839 86.9782 98.844 86.9873 98.8491 86.9965C98.8564 87.0097 98.8639 87.0231 98.8717 87.0368C98.8793 87.0501 98.8871 87.0635 98.8951 87.0771C98.4638 87.7912 97.6962 88.2664 96.8212 88.2664C95.4722 88.2664 94.3786 87.137 94.3786 85.7439V85.0462C94.6916 84.3218 95.1135 83.1779 95.376 82.0103C95.5276 81.3357 95.6345 80.6166 95.6223 79.9475C95.6103 79.2948 95.4829 78.5715 95.0519 78.0044C94.9453 77.8642 94.8296 77.5483 94.7898 76.9857C94.7519 76.4498 94.7905 75.8071 94.879 75.1341C95.0377 73.9285 95.3421 72.7327 95.5506 72.0773C95.9208 71.844 96.3558 71.7095 96.8212 71.7095Z" fill="white"/>
<path d="M92.7639 84.4482C93.0414 83.8262 93.4613 82.7196 93.7105 81.611C93.8451 81.0123 93.9214 80.4496 93.9128 79.981C93.9038 79.4958 93.8061 79.2252 93.7069 79.0947C93.2833 78.5374 93.1324 77.7917 93.0845 77.1142C93.0348 76.4102 93.0877 75.6345 93.1848 74.8964C93.3562 73.5935 93.6801 72.3036 93.9219 71.5399C93.4787 70.902 92.7544 70.4864 91.936 70.4864C90.587 70.4864 89.4935 71.6157 89.4935 73.0088V82.0744C89.4935 83.4675 90.587 84.5968 91.936 84.5968C92.2266 84.5968 92.5054 84.5444 92.7639 84.4482Z" fill="white"/>
<path d="M26.3799 86.5194C32.0457 86.5194 36.6387 81.7762 36.6387 75.9252C36.6387 70.0742 32.0457 65.331 26.3799 65.331C20.7141 65.331 16.121 70.0742 16.121 75.9252C16.121 81.7762 20.7141 86.5194 26.3799 86.5194Z" fill="white"/>
</svg>
