<svg width="23" height="23" viewBox="0 0 23 23" fill="none" xmlns="http://www.w3.org/2000/svg">
<path d="M3 6H20V18H3V6Z" fill="black"/>
<path d="M11.8045 0.00967879C5.53856 -0.242655 0.257008 4.69769 0.00912802 11.0446C-0.23994 17.3915 4.63859 22.7403 10.9039 22.9927C17.1702 23.2453 22.4502 18.305 22.6993 11.9578C22.9472 5.6109 18.0696 0.261413 11.8045 0.00967879ZM16.5971 16.8573C16.456 17.1097 16.181 17.2357 15.9132 17.1979C15.8312 17.1862 15.7492 17.1589 15.6725 17.1147C14.1718 16.2494 12.5363 15.6861 10.8115 15.4399C9.08675 15.1937 7.36081 15.2789 5.68271 15.6921C5.31833 15.7815 4.95215 15.5555 4.86388 15.1864C4.77561 14.8175 4.99882 14.4463 5.36291 14.3569C7.20804 13.9029 9.10518 13.8093 11.0002 14.0795C12.8953 14.3497 14.6926 14.9689 16.3439 15.9203C16.6688 16.1085 16.782 16.5272 16.5971 16.8573ZM18.0895 13.8384C17.8579 14.2715 17.3226 14.4333 16.895 14.1988C15.139 13.2369 13.2377 12.6051 11.2443 12.3211C9.25051 12.0371 7.25173 12.1139 5.30198 12.5481C5.19617 12.5712 5.09125 12.5754 4.9896 12.5607C4.63562 12.5102 4.33275 12.2431 4.25161 11.868C4.14669 11.3866 4.44777 10.9103 4.92303 10.8041C7.07845 10.3237 9.28796 10.2388 11.4901 10.5519C13.6912 10.8653 15.7926 11.5635 17.7334 12.6272C18.162 12.8616 18.3207 13.403 18.0895 13.8369V13.8384ZM19.7435 10.4358C19.5256 10.8604 19.0721 11.0801 18.6301 11.0171C18.5106 11.0002 18.3935 10.9624 18.2803 10.9036C16.2357 9.8261 14.0336 9.11444 11.735 8.78722C9.43628 8.46031 7.12511 8.52955 4.86685 8.99405C4.27955 9.11497 3.7077 8.7302 3.58822 8.13626C3.46874 7.54143 3.84858 6.96221 4.435 6.84129C6.93608 6.32728 9.49305 6.25084 12.0369 6.61228C14.5805 6.97402 17.0174 7.76252 19.2816 8.95557C19.813 9.2353 20.0193 9.89767 19.7435 10.4358Z" fill="#1ED760"/>
</svg>
