<svg width="25" height="16" viewBox="0 0 25 16" fill="none" xmlns="http://www.w3.org/2000/svg">
<path d="M23.9084 2.49859C23.627 1.51458 22.8008 0.741297 21.7495 0.477892C19.846 1.43051e-07 12.2095 0 12.2095 0C12.2095 0 4.57303 1.43051e-07 2.66944 0.477892C1.61815 0.741297 0.791989 1.51458 0.510571 2.49859C1.52833e-07 4.28033 0 7.99998 0 7.99998C0 7.99998 1.52833e-07 11.7197 0.510571 13.5014C0.791989 14.4854 1.61815 15.2587 2.66944 15.522C4.57303 16 12.2095 16 12.2095 16C12.2095 16 19.846 16 21.7495 15.522C22.8008 15.2587 23.627 14.4854 23.9084 13.5014C24.419 11.7197 24.419 7.99998 24.419 7.99998C24.419 7.99998 24.4169 4.28033 23.9084 2.49859Z" fill="#FF0000"/>
<path d="M9.7655 11.4281L16.1095 8.00007L9.7655 4.57202V11.4281Z" fill="white"/>
</svg>
