<svg width="21" height="20" viewBox="0 0 21 20" fill="none" xmlns="http://www.w3.org/2000/svg">
<path fill-rule="evenodd" clip-rule="evenodd" d="M1.441 1.39817C0.0430707 2.75452 0.00125009 4.91279 0 9.14938C3.91304 9.14936 6.35615 7.5194 8.49916 6.08963C10.1733 4.97269 11.6643 3.97792 13.53 3.97792C16.3068 3.97792 18.7314 5.88289 20.017 6.893C20.1983 7.03543 20.3569 7.16008 20.4907 7.25908C20.4502 4.23849 20.2318 2.5361 19.0589 1.39817C17.6179 6.63908e-07 15.2986 4.63012e-07 10.66 6.95542e-08L9.83996 0C5.20134 1.12404e-06 2.88203 9.48439e-07 1.441 1.39817ZM9.23728 19.8901C9.43371 19.8902 9.63457 19.8902 9.83998 19.8902H10.66C10.8654 19.8902 11.0662 19.8902 11.2626 19.8901H9.23728Z" fill="#0077FF"/>
<path fill-rule="evenodd" clip-rule="evenodd" d="M3.91561e-05 9.14936C3.91308 9.14934 6.35619 7.51938 8.4992 6.08961C10.1734 4.97267 11.6644 3.97791 13.53 3.97791C16.3068 3.97791 18.7314 5.88287 20.017 6.89298C20.1983 7.03541 20.3569 7.16006 20.4908 7.25906C20.5 7.94984 20.5 8.70959 20.5 9.54728V10.3429C20.5 14.8435 20.5 17.0939 19.059 18.492C17.6817 19.8283 15.5023 19.8875 11.2625 19.8901H9.23747C4.99776 19.8875 2.81828 19.8283 1.44104 18.492C-5.8651e-07 17.0939 -4.09563e-07 14.8435 4.37222e-10 10.3429L2.0816e-07 9.54728C2.0816e-07 9.41265 2.0607e-07 9.28002 3.91561e-05 9.14936Z" fill="#F45FFF"/>
<path d="M15.8875 10.1391C15.8875 9.64746 16.3033 9.24896 16.81 9.24896C17.3166 9.24896 17.7325 9.64746 17.7325 10.1391V13.7292C17.7325 14.2208 17.3166 14.6193 16.81 14.6193C16.3033 14.6193 15.8875 14.2208 15.8875 13.7292V10.1391Z" fill="white"/>
<path d="M12.6077 7.8517C12.6077 7.36011 13.0235 6.96161 13.5302 6.96161C14.0368 6.96161 14.4527 7.36011 14.4527 7.8517V16.0166C14.4527 16.5082 14.0368 16.9067 13.5302 16.9067C13.0235 16.9067 12.6077 16.5082 12.6077 16.0166V7.8517Z" fill="white"/>
<path d="M9.32764 10.1391C9.32764 9.64746 9.74348 9.24896 10.2501 9.24896C10.7568 9.24896 11.1726 9.64746 11.1726 10.1391V13.7292C11.1726 14.2208 10.7568 14.6193 10.2501 14.6193C9.74348 14.6193 9.32764 14.2208 9.32764 13.7292V10.1391Z" fill="white"/>
<path d="M6.04736 11.4319C6.04736 10.9403 6.46323 10.5418 6.96986 10.5418C7.47652 10.5418 7.89237 10.9403 7.89237 11.4319V12.4364C7.89237 12.9279 7.47652 13.3264 6.96986 13.3264C6.46323 13.3264 6.04736 12.9279 6.04736 12.4364V11.4319Z" fill="white"/>
<path d="M2.76733 11.4319C2.76733 10.9403 3.1832 10.5418 3.68984 10.5418C4.19649 10.5418 4.61234 10.9403 4.61234 11.4319V12.4364C4.61234 12.9279 4.19649 13.3264 3.68984 13.3264C3.1832 13.3264 2.76733 12.9279 2.76733 12.4364V11.4319Z" fill="white"/>
</svg>
