<svg width="20" height="22" viewBox="0 0 20 22" fill="none" xmlns="http://www.w3.org/2000/svg">
<path d="M19.8106 8.3856L19.7326 7.959L16.4345 7.32521L18.351 4.47313L18.1282 4.20499L15.3092 5.69197L15.6657 1.74294L15.3761 1.56011L13.6602 4.75346L11.7326 0H11.3984L11.8552 4.59501L7.00836 0.329086L6.59609 0.463157L10.3287 5.61884L2.94155 2.91302L2.60727 3.32742L9.20337 7.45928L0.100275 8.28809L0 8.90969L9.45964 10.0432L1.57109 17.2222L1.90536 17.7219L11.2981 12.103L9.43737 22H10.0056L13.6045 12.6881L15.7995 19.9767L16.1895 19.6476L15.2869 12.2371L18.7075 16.503L18.9304 16.113L16.312 10.8233L19.9666 12.3102L20 11.8593L16.7243 9.20222L19.8106 8.3856Z" fill="#FFBC0D"/>
</svg>
