<svg width="34" height="22" viewBox="0 0 34 22" fill="none" xmlns="http://www.w3.org/2000/svg">
<path d="M32.7226 3.41973C32.3375 2.07295 31.2066 1.01459 29.7678 0.654074C27.1625 1.95789e-07 16.7107 0 16.7107 0C16.7107 0 6.25894 1.95789e-07 3.65357 0.654074C2.21471 1.01459 1.08397 2.07295 0.698801 3.41973C2.09177e-07 5.85834 0 10.9493 0 10.9493C0 10.9493 2.09177e-07 16.0403 0.698801 18.4789C1.08397 19.8257 2.21471 20.884 3.65357 21.2445C6.25894 21.8986 16.7107 21.8986 16.7107 21.8986C16.7107 21.8986 27.1625 21.8986 29.7678 21.2445C31.2066 20.884 32.3375 19.8257 32.7226 18.4789C33.4214 16.0403 33.4214 10.9493 33.4214 10.9493C33.4214 10.9493 33.4186 5.85834 32.7226 3.41973Z" fill="#FF0000"/>
<path d="M13.3657 15.6412L22.0485 10.9494L13.3657 6.25757V15.6412Z" fill="white"/>
</svg>
