<svg width="140" height="140" viewBox="0 0 140 140" fill="none" xmlns="http://www.w3.org/2000/svg">
<path d="M70.0086 112.332C67.0319 115.279 63.3744 117.502 59.303 118.727C62.1536 121.301 65.8916 122.861 69.9842 122.861C74.167 122.861 77.9794 121.231 80.8526 118.555C76.7397 117.407 73.0344 115.239 70.0086 112.332Z" fill="#EF2917"/>
<path d="M39.1059 72.0376C36.8586 70.0511 35.8389 68.5359 34.4424 65.8662V49.4364C35.8506 49.7347 36.5398 50.3023 36.9857 51.567C37.2027 52.1818 37.2509 52.8401 37.2509 53.492V60.2347C37.2509 61.0803 37.9363 61.7657 38.7815 61.7657C39.6271 61.7657 40.3125 61.0803 40.3125 60.2347V53.2134C40.3125 52.071 40.1792 50.9206 39.7365 49.8677C38.811 47.6656 37.2993 45.7786 34.4424 45.5161C34.4424 25.0536 52.6897 14.6004 70.0001 14.6004C87.3105 14.6004 105.558 25.0536 105.558 45.5161C102.701 45.7786 101.189 47.6656 100.264 49.8677C99.8208 50.9206 99.6875 52.071 99.6875 53.2134V60.2347C99.6875 61.0803 100.373 61.7657 101.218 61.7657C102.064 61.7657 102.749 61.0803 102.749 60.2347V53.492C102.749 52.8401 102.797 52.1818 103.014 51.567C103.46 50.3023 104.149 49.7347 105.558 49.4364V65.8662C104.161 68.5359 103.141 70.0511 100.894 72.0376L105.939 76.1416C109.665 72.436 111.538 69.3948 112.087 64.1168C121.004 61.1129 121.037 48.4619 112.101 45.5161C112.915 18.7157 90.9205 3.68132 70.0001 2.91669C49.0797 3.68132 27.0847 18.7157 27.8994 45.5161C18.9634 48.4619 18.9963 61.1129 27.9129 64.1168C28.4618 69.3948 30.3352 72.436 34.0612 76.1416L39.1059 72.0376Z" fill="#EF2917"/>
<path d="M50.2573 134.798C50.2573 136.57 51.6935 138.007 53.4657 138.007C55.2375 138.007 56.674 136.57 56.674 134.798H50.2573ZM50.2573 119.292V134.798H56.674V119.292H50.2573Z" fill="#EF2917"/>
<path d="M86.0063 130.832C86.0063 132.604 87.4428 134.04 89.2147 134.04C90.9866 134.04 92.423 132.604 92.423 130.832H86.0063ZM86.0063 118.753V130.832H92.423V118.753H86.0063Z" fill="#EF2917"/>
<path fill-rule="evenodd" clip-rule="evenodd" d="M51.9939 119.882C58.9879 119.882 65.3367 117.115 70.0086 112.616C74.6247 116.931 80.8221 119.572 87.6355 119.572C101.904 119.572 113.471 107.99 113.471 93.702C113.471 79.4144 101.904 67.8323 87.6355 67.8323C80.7415 67.8323 74.4782 70.536 69.8455 74.9421C65.1895 70.5347 58.9069 67.8322 51.9939 67.8322C37.6397 67.8322 26.0034 79.4838 26.0034 93.8568C26.0034 108.23 37.6397 119.882 51.9939 119.882ZM50.2646 109.945C57.3878 109.945 63.1624 104.171 63.1624 97.0474C63.1624 89.9242 57.3878 84.1497 50.2646 84.1497C43.1414 84.1497 37.3668 89.9242 37.3668 97.0474C37.3668 104.171 43.1414 109.945 50.2646 109.945ZM89.2145 109.945C96.3377 109.945 102.112 104.171 102.112 97.0474C102.112 89.9242 96.3377 84.1497 89.2145 84.1497C82.0912 84.1497 76.3167 89.9242 76.3167 97.0474C76.3167 104.171 82.0912 109.945 89.2145 109.945Z" fill="#FFC53A"/>
<path d="M50.2646 103.617C53.8924 103.617 56.8333 100.676 56.8333 97.0478C56.8333 93.4199 53.8924 90.479 50.2646 90.479C46.6367 90.479 43.6958 93.4199 43.6958 97.0478C43.6958 100.676 46.6367 103.617 50.2646 103.617Z" fill="#EF2917"/>
<path d="M88.8493 103.616C92.4771 103.616 95.4181 100.676 95.4181 97.0477C95.4181 93.4199 92.4771 90.4789 88.8493 90.4789C85.2215 90.4789 82.2805 93.4199 82.2805 97.0477C82.2805 100.676 85.2215 103.616 88.8493 103.616Z" fill="#EF2917"/>
<path d="M87.736 23.7882C74.4561 18.8861 61.1249 19.9139 49.7686 25.8417C49.0181 26.2335 48.6967 27.1295 48.9986 27.9205C49.3754 28.908 50.5505 29.3169 51.485 28.8233C65.2094 21.5733 79.5521 23.0911 86.8759 25.8758C87.4452 26.0923 88.0909 25.8457 88.3476 25.293C88.6197 24.7073 88.3418 24.0119 87.736 23.7882Z" fill="#FFC53A"/>
</svg>
